<?xml version="1.0" encoding="UTF-8" standalone="no"?>
<!DOCTYPE svg PUBLIC "-//W3C//DTD SVG 1.1//EN"
 "http://www.w3.org/Graphics/SVG/1.1/DTD/svg11.dtd">
<!-- Generated by graphviz version 13.1.2 (20250808.2320)
 -->
<!-- Pages: 1 -->
<svg width="836pt" height="1017pt"
 viewBox="0.00 0.00 836.00 1017.00" xmlns="http://www.w3.org/2000/svg" xmlns:xlink="http://www.w3.org/1999/xlink">
<g id="graph0" class="graph" transform="scale(1 1) rotate(0) translate(4 1013.13)">
<polygon fill="white" stroke="none" points="-4,4 -4,-1013.13 832,-1013.13 832,4 -4,4"/>
<g id="clust114" class="cluster">
<title>cluster./Validator</title>
<path fill="none" stroke="black" d="M20,-64.83C20,-64.83 808,-64.83 808,-64.83 814,-64.83 820,-70.83 820,-76.83 820,-76.83 820,-989.13 820,-989.13 820,-995.13 814,-1001.13 808,-1001.13 808,-1001.13 20,-1001.13 20,-1001.13 14,-1001.13 8,-995.13 8,-989.13 8,-989.13 8,-76.83 8,-76.83 8,-70.83 14,-64.83 20,-64.83"/>
<text xml:space="preserve" text-anchor="middle" x="414" y="-983.83" font-family="Times,serif" font-size="14.00">Validator</text>
</g>
<g id="clust115" class="cluster">
<title>cluster./Validator/Certificate</title>
<path fill="none" stroke="black" d="M304,-72.83C304,-72.83 515,-72.83 515,-72.83 521,-72.83 527,-78.83 527,-84.83 527,-84.83 527,-541.48 527,-541.48 527,-547.48 521,-553.48 515,-553.48 515,-553.48 304,-553.48 304,-553.48 298,-553.48 292,-547.48 292,-541.48 292,-541.48 292,-84.83 292,-84.83 292,-78.83 298,-72.83 304,-72.83"/>
<text xml:space="preserve" text-anchor="middle" x="409.5" y="-536.18" font-family="Times,serif" font-size="14.00">Certificate</text>
</g>
<g id="clust116" class="cluster">
<title>cluster./Validator/PlanningTask</title>
<path fill="none" stroke="black" d="M218,-809.47C218,-809.47 420,-809.47 420,-809.47 426,-809.47 432,-815.47 432,-821.47 432,-821.47 432,-956.63 432,-956.63 432,-962.63 426,-968.63 420,-968.63 420,-968.63 218,-968.63 218,-968.63 212,-968.63 206,-962.63 206,-956.63 206,-956.63 206,-821.47 206,-821.47 206,-815.47 212,-809.47 218,-809.47"/>
<text xml:space="preserve" text-anchor="middle" x="319" y="-951.33" font-family="Times,serif" font-size="14.00">PlanningTask</text>
</g>
<g id="clust117" class="cluster">
<title>cluster./Validator/StateSetFormalism</title>
<path fill="none" stroke="black" d="M65,-561.48C65,-561.48 510,-561.48 510,-561.48 516,-561.48 522,-567.48 522,-573.48 522,-573.48 522,-789.47 522,-789.47 522,-795.47 516,-801.47 510,-801.47 510,-801.47 65,-801.47 65,-801.47 59,-801.47 53,-795.47 53,-789.47 53,-789.47 53,-573.48 53,-573.48 53,-567.48 59,-561.48 65,-561.48"/>
<text xml:space="preserve" text-anchor="middle" x="287.5" y="-784.17" font-family="Times,serif" font-size="14.00">StateSetFormalism</text>
</g>
<!-- Validator -->
<g id="node1" class="node">
<title>Validator</title>
<g id="a_node1"><a xlink:href="https://github.com/AmosNico/Master-Thesis/tree/main/validator/Validator.html" xlink:title="Validator✓">
<ellipse fill="none" stroke="green" cx="539" cy="-18.92" rx="54.27" ry="18.92"/>
<text xml:space="preserve" text-anchor="middle" x="539" y="-14.99" font-family="Times,serif" font-size="14.00">Validator✓</text>
</a>
</g>
</g>
<!-- Validator/Certificate/Parser -->
<g id="node2" class="node">
<title>Validator/Certificate/Parser</title>
<g id="a_node2"><a xlink:href="https://github.com/AmosNico/Master-Thesis/tree/main/validator/Validator/Certificate/Parser.html" xlink:title="Parser?">
<ellipse fill="none" stroke="red" cx="338" cy="-421.24" rx="38.04" ry="18"/>
<text xml:space="preserve" text-anchor="middle" x="338" y="-416.19" font-family="Times,serif" font-size="14.00">Parser?</text>
</a>
</g>
</g>
<!-- Validator/Certificate/Parser&#45;&gt;Validator -->
<g id="edge1" class="edge">
<title>Validator/Certificate/Parser&#45;&gt;Validator</title>
<path fill="none" stroke="black" d="M369.3,-410.67C424.42,-393.8 533.18,-360.44 535,-359.32 586.32,-327.67 629,-321.79 629,-261.49 629,-261.49 629,-261.49 629,-179.58 629,-126.58 590.9,-74.96 564.28,-45.36"/>
<polygon fill="black" stroke="black" points="567.17,-43.33 557.81,-38.36 562.03,-48.08 567.17,-43.33"/>
</g>
<!-- Validator/Certificate/ToDerivation -->
<g id="node3" class="node">
<title>Validator/Certificate/ToDerivation</title>
<g id="a_node3"><a xlink:href="https://github.com/AmosNico/Master-Thesis/tree/main/validator/Validator/Certificate/ToDerivation.html" xlink:title="ToDerivation✓">
<ellipse fill="none" stroke="green" cx="449" cy="-99.75" rx="70.18" ry="18.92"/>
<text xml:space="preserve" text-anchor="middle" x="449" y="-95.82" font-family="Times,serif" font-size="14.00">ToDerivation✓</text>
</a>
</g>
</g>
<!-- Validator/Certificate/ToDerivation&#45;&gt;Validator -->
<g id="edge2" class="edge">
<title>Validator/Certificate/ToDerivation&#45;&gt;Validator</title>
<path fill="none" stroke="black" d="M468.97,-81.25C481.38,-70.39 497.5,-56.26 511.15,-44.31"/>
<polygon fill="black" stroke="black" points="513.34,-47.04 518.56,-37.82 508.73,-41.77 513.34,-47.04"/>
</g>
<!-- Validator/PlanningTask/Basic -->
<g id="node4" class="node">
<title>Validator/PlanningTask/Basic</title>
<g id="a_node4"><a xlink:href="https://github.com/AmosNico/Master-Thesis/tree/main/validator/Validator/PlanningTask/Basic.html" xlink:title="Basic✓">
<ellipse fill="none" stroke="green" cx="384" cy="-836.39" rx="40.48" ry="18.92"/>
<text xml:space="preserve" text-anchor="middle" x="384" y="-832.46" font-family="Times,serif" font-size="14.00">Basic✓</text>
</a>
</g>
</g>
<!-- Validator/InductiveCertificate -->
<g id="node5" class="node">
<title>Validator/InductiveCertificate</title>
<g id="a_node5"><a xlink:href="https://github.com/AmosNico/Master-Thesis/tree/main/validator/Validator/InductiveCertificate.html" xlink:title="InductiveCertificate✓">
<ellipse fill="none" stroke="green" cx="626" cy="-750.06" rx="95.64" ry="18.92"/>
<text xml:space="preserve" text-anchor="middle" x="626" y="-746.13" font-family="Times,serif" font-size="14.00">InductiveCertificate✓</text>
</a>
</g>
</g>
<!-- Validator/PlanningTask/Basic&#45;&gt;Validator/InductiveCertificate -->
<g id="edge3" class="edge">
<title>Validator/PlanningTask/Basic&#45;&gt;Validator/InductiveCertificate</title>
<path fill="none" stroke="black" d="M405.46,-820.14C412.36,-815.98 420.22,-811.94 428,-809.47 469.66,-796.27 483.93,-813.31 526,-801.47 547.85,-795.33 570.57,-784.3 588.82,-774.13"/>
<polygon fill="black" stroke="black" points="590.49,-777.2 597.42,-769.19 587,-771.13 590.49,-777.2"/>
</g>
<!-- Validator/StateSetFormalism/Formula -->
<g id="node18" class="node">
<title>Validator/StateSetFormalism/Formula</title>
<g id="a_node18"><a xlink:href="https://github.com/AmosNico/Master-Thesis/tree/main/validator/Validator/StateSetFormalism/Formula.html" xlink:title="Formula✓">
<ellipse fill="none" stroke="green" cx="347" cy="-750.06" rx="52.15" ry="18.92"/>
<text xml:space="preserve" text-anchor="middle" x="347" y="-746.13" font-family="Times,serif" font-size="14.00">Formula✓</text>
</a>
</g>
</g>
<!-- Validator/PlanningTask/Basic&#45;&gt;Validator/StateSetFormalism/Formula -->
<g id="edge22" class="edge">
<title>Validator/PlanningTask/Basic&#45;&gt;Validator/StateSetFormalism/Formula</title>
<path fill="none" stroke="black" d="M376.15,-817.5C371.33,-806.51 365.04,-792.17 359.54,-779.63"/>
<polygon fill="black" stroke="black" points="362.79,-778.34 355.57,-770.59 356.38,-781.16 362.79,-778.34"/>
</g>
<!-- Validator/ProofSystem -->
<g id="node7" class="node">
<title>Validator/ProofSystem</title>
<g id="a_node7"><a xlink:href="https://github.com/AmosNico/Master-Thesis/tree/main/validator/Validator/ProofSystem.html" xlink:title="ProofSystem✓">
<ellipse fill="none" stroke="green" cx="606" cy="-588.4" rx="69.12" ry="18.92"/>
<text xml:space="preserve" text-anchor="middle" x="606" y="-584.47" font-family="Times,serif" font-size="14.00">ProofSystem✓</text>
</a>
</g>
</g>
<!-- Validator/InductiveCertificate&#45;&gt;Validator/ProofSystem -->
<g id="edge5" class="edge">
<title>Validator/InductiveCertificate&#45;&gt;Validator/ProofSystem</title>
<path fill="none" stroke="black" d="M623.71,-730.74C620.27,-703.31 613.75,-651.3 609.66,-618.59"/>
<polygon fill="black" stroke="black" points="613.17,-618.49 608.46,-609 606.23,-619.36 613.17,-618.49"/>
</g>
<!-- Validator/Basic -->
<g id="node6" class="node">
<title>Validator/Basic</title>
<g id="a_node6"><a xlink:href="https://github.com/AmosNico/Master-Thesis/tree/main/validator/Validator/Basic.html" xlink:title="Basic✓">
<ellipse fill="none" stroke="green" cx="654" cy="-836.39" rx="40.48" ry="18.92"/>
<text xml:space="preserve" text-anchor="middle" x="654" y="-832.46" font-family="Times,serif" font-size="14.00">Basic✓</text>
</a>
</g>
</g>
<!-- Validator/Basic&#45;&gt;Validator/ProofSystem -->
<g id="edge4" class="edge">
<title>Validator/Basic&#45;&gt;Validator/ProofSystem</title>
<path fill="none" stroke="black" d="M693.13,-830.68C711.48,-826.28 731.74,-817.81 743,-801.47 760.74,-775.73 754.72,-760.12 743,-731.14 722.48,-680.39 674.12,-637.72 640.71,-612.85"/>
<polygon fill="black" stroke="black" points="643.1,-610.25 632.95,-607.2 638.98,-615.91 643.1,-610.25"/>
</g>
<!-- Validator/Basic&#45;&gt;Validator/StateSetFormalism/Formula -->
<g id="edge23" class="edge">
<title>Validator/Basic&#45;&gt;Validator/StateSetFormalism/Formula</title>
<path fill="none" stroke="black" d="M614.98,-830.73C546.85,-822.5 412.5,-805.87 403,-801.47 390.33,-795.61 378.49,-785.87 368.99,-776.5"/>
<polygon fill="black" stroke="black" points="371.78,-774.36 362.33,-769.57 366.74,-779.21 371.78,-774.36"/>
</g>
<!-- Validator/ProofSystem&#45;&gt;Validator/Certificate/ToDerivation -->
<g id="edge14" class="edge">
<title>Validator/ProofSystem&#45;&gt;Validator/Certificate/ToDerivation</title>
<path fill="none" stroke="black" d="M598.11,-569.47C585.7,-539.56 563,-477.35 563,-422.24 563,-422.24 563,-422.24 563,-259.49 563,-214.83 565.44,-198.37 540,-161.66 528.51,-145.07 510.89,-131.76 494.22,-121.87"/>
<polygon fill="black" stroke="black" points="496.31,-119.03 485.88,-117.18 492.88,-125.13 496.31,-119.03"/>
</g>
<!-- Validator/StateSetFormalism/Formalism -->
<g id="node8" class="node">
<title>Validator/StateSetFormalism/Formalism</title>
<g id="a_node8"><a xlink:href="https://github.com/AmosNico/Master-Thesis/tree/main/validator/Validator/StateSetFormalism/Formalism.html" xlink:title="Formalism✓">
<ellipse fill="none" stroke="green" cx="452" cy="-669.23" rx="61.7" ry="18.92"/>
<text xml:space="preserve" text-anchor="middle" x="452" y="-665.3" font-family="Times,serif" font-size="14.00">Formalism✓</text>
</a>
</g>
</g>
<!-- Validator/StateSetFormalism/Formalism&#45;&gt;Validator/ProofSystem -->
<g id="edge6" class="edge">
<title>Validator/StateSetFormalism/Formalism&#45;&gt;Validator/ProofSystem</title>
<path fill="none" stroke="black" d="M482.79,-652.46C506.17,-640.5 538.56,-623.92 564.26,-610.76"/>
<polygon fill="black" stroke="black" points="565.81,-613.9 573.12,-606.23 562.62,-607.67 565.81,-613.9"/>
</g>
<!-- Validator/StateSetFormalism/StateSetFormalism -->
<g id="node11" class="node">
<title>Validator/StateSetFormalism/StateSetFormalism</title>
<g id="a_node11"><a xlink:href="https://github.com/AmosNico/Master-Thesis/tree/main/validator/Validator/StateSetFormalism/StateSetFormalism.html" xlink:title="StateSetFormalism✓">
<ellipse fill="none" stroke="green" cx="311" cy="-588.4" rx="92.98" ry="18.92"/>
<text xml:space="preserve" text-anchor="middle" x="311" y="-584.47" font-family="Times,serif" font-size="14.00">StateSetFormalism✓</text>
</a>
</g>
</g>
<!-- Validator/StateSetFormalism/Formalism&#45;&gt;Validator/StateSetFormalism/StateSetFormalism -->
<g id="edge26" class="edge">
<title>Validator/StateSetFormalism/Formalism&#45;&gt;Validator/StateSetFormalism/StateSetFormalism</title>
<path fill="none" stroke="black" d="M423.13,-652.08C402.49,-640.55 374.45,-624.87 351.57,-612.08"/>
<polygon fill="black" stroke="black" points="353.55,-609.17 343.11,-607.35 350.13,-615.28 353.55,-609.17"/>
</g>
<!-- Validator/Certificate/Constraint -->
<g id="node9" class="node">
<title>Validator/Certificate/Constraint</title>
<g id="a_node9"><a xlink:href="https://github.com/AmosNico/Master-Thesis/tree/main/validator/Validator/Certificate/Constraint.html" xlink:title="Constraint✓">
<ellipse fill="none" stroke="green" cx="454" cy="-340.41" rx="59.04" ry="18.92"/>
<text xml:space="preserve" text-anchor="middle" x="454" y="-336.48" font-family="Times,serif" font-size="14.00">Constraint✓</text>
</a>
</g>
</g>
<!-- Validator/Certificate/BasicRules -->
<g id="node10" class="node">
<title>Validator/Certificate/BasicRules</title>
<g id="a_node10"><a xlink:href="https://github.com/AmosNico/Master-Thesis/tree/main/validator/Validator/Certificate/BasicRules.html" xlink:title="BasicRules?">
<ellipse fill="none" stroke="red" cx="444" cy="-260.49" rx="56.47" ry="18"/>
<text xml:space="preserve" text-anchor="middle" x="444" y="-255.44" font-family="Times,serif" font-size="14.00">BasicRules?</text>
</a>
</g>
</g>
<!-- Validator/Certificate/Constraint&#45;&gt;Validator/Certificate/BasicRules -->
<g id="edge7" class="edge">
<title>Validator/Certificate/Constraint&#45;&gt;Validator/Certificate/BasicRules</title>
<path fill="none" stroke="black" d="M451.68,-321.33C450.49,-312.06 449.01,-300.54 447.67,-290.09"/>
<polygon fill="black" stroke="black" points="451.18,-289.9 446.43,-280.43 444.23,-290.79 451.18,-289.9"/>
</g>
<!-- Validator/Certificate/ValidCertificate -->
<g id="node16" class="node">
<title>Validator/Certificate/ValidCertificate</title>
<g id="a_node16"><a xlink:href="https://github.com/AmosNico/Master-Thesis/tree/main/validator/Validator/Certificate/ValidCertificate.html" xlink:title="ValidCertificate✓">
<ellipse fill="none" stroke="green" cx="439" cy="-180.58" rx="79.73" ry="18.92"/>
<text xml:space="preserve" text-anchor="middle" x="439" y="-176.65" font-family="Times,serif" font-size="14.00">ValidCertificate✓</text>
</a>
</g>
</g>
<!-- Validator/Certificate/BasicRules&#45;&gt;Validator/Certificate/ValidCertificate -->
<g id="edge16" class="edge">
<title>Validator/Certificate/BasicRules&#45;&gt;Validator/Certificate/ValidCertificate</title>
<path fill="none" stroke="black" d="M442.89,-242.2C442.31,-233.08 441.57,-221.63 440.9,-211.15"/>
<polygon fill="black" stroke="black" points="444.41,-211.17 440.27,-201.42 437.42,-211.62 444.41,-211.17"/>
</g>
<!-- Validator/Certificate/Certificate -->
<g id="node12" class="node">
<title>Validator/Certificate/Certificate</title>
<g id="a_node12"><a xlink:href="https://github.com/AmosNico/Master-Thesis/tree/main/validator/Validator/Certificate/Certificate.html" xlink:title="Certificate✓">
<ellipse fill="none" stroke="green" cx="360" cy="-502.07" rx="59.57" ry="18.92"/>
<text xml:space="preserve" text-anchor="middle" x="360" y="-498.14" font-family="Times,serif" font-size="14.00">Certificate✓</text>
</a>
</g>
</g>
<!-- Validator/StateSetFormalism/StateSetFormalism&#45;&gt;Validator/Certificate/Certificate -->
<g id="edge8" class="edge">
<title>Validator/StateSetFormalism/StateSetFormalism&#45;&gt;Validator/Certificate/Certificate</title>
<path fill="none" stroke="black" d="M321.39,-569.51C327.95,-558.22 336.56,-543.4 343.99,-530.63"/>
<polygon fill="black" stroke="black" points="346.87,-532.64 348.86,-522.23 340.81,-529.12 346.87,-532.64"/>
</g>
<!-- Validator/Certificate/Certificate&#45;&gt;Validator/Certificate/Parser -->
<g id="edge11" class="edge">
<title>Validator/Certificate/Certificate&#45;&gt;Validator/Certificate/Parser</title>
<path fill="none" stroke="black" d="M354.9,-482.78C352.21,-473.16 348.86,-461.16 345.86,-450.38"/>
<polygon fill="black" stroke="black" points="349.24,-449.49 343.18,-440.8 342.5,-451.37 349.24,-449.49"/>
</g>
<!-- Validator/Certificate/SetExpr -->
<g id="node13" class="node">
<title>Validator/Certificate/SetExpr</title>
<g id="a_node13"><a xlink:href="https://github.com/AmosNico/Master-Thesis/tree/main/validator/Validator/Certificate/SetExpr.html" xlink:title="SetExpr✓">
<ellipse fill="none" stroke="green" cx="469" cy="-421.24" rx="50.03" ry="18.92"/>
<text xml:space="preserve" text-anchor="middle" x="469" y="-417.31" font-family="Times,serif" font-size="14.00">SetExpr✓</text>
</a>
</g>
</g>
<!-- Validator/Certificate/Certificate&#45;&gt;Validator/Certificate/SetExpr -->
<g id="edge13" class="edge">
<title>Validator/Certificate/Certificate&#45;&gt;Validator/Certificate/SetExpr</title>
<path fill="none" stroke="black" d="M383.12,-484.35C398.93,-472.91 420.1,-457.6 437.47,-445.04"/>
<polygon fill="black" stroke="black" points="439.38,-447.97 445.44,-439.28 435.28,-442.3 439.38,-447.97"/>
</g>
<!-- Validator/Certificate/SetExpr&#45;&gt;Validator/Certificate/Constraint -->
<g id="edge9" class="edge">
<title>Validator/Certificate/SetExpr&#45;&gt;Validator/Certificate/Constraint</title>
<path fill="none" stroke="black" d="M465.52,-401.95C463.76,-392.7 461.58,-381.24 459.59,-370.79"/>
<polygon fill="black" stroke="black" points="463.05,-370.25 457.74,-361.08 456.17,-371.55 463.05,-370.25"/>
</g>
<!-- Validator/PlanningTask/Parser -->
<g id="node14" class="node">
<title>Validator/PlanningTask/Parser</title>
<g id="a_node14"><a xlink:href="https://github.com/AmosNico/Master-Thesis/tree/main/validator/Validator/PlanningTask/Parser.html" xlink:title="Parser✓">
<ellipse fill="none" stroke="green" cx="257" cy="-836.39" rx="43.13" ry="18.92"/>
<text xml:space="preserve" text-anchor="middle" x="257" y="-832.46" font-family="Times,serif" font-size="14.00">Parser✓</text>
</a>
</g>
</g>
<!-- Validator/PlanningTask/Parser&#45;&gt;Validator/Certificate/Parser -->
<g id="edge10" class="edge">
<title>Validator/PlanningTask/Parser&#45;&gt;Validator/Certificate/Parser</title>
<path fill="none" stroke="black" d="M213.88,-834.23C158.53,-831.81 66.78,-824.36 43,-801.47 0.15,-760.24 17,-729.69 17,-670.23 17,-670.23 17,-670.23 17,-587.4 17,-466.56 199.07,-434.06 288.97,-425.37"/>
<polygon fill="black" stroke="black" points="289.08,-428.87 298.73,-424.5 288.45,-421.9 289.08,-428.87"/>
</g>
<!-- Validator/Error -->
<g id="node15" class="node">
<title>Validator/Error</title>
<g id="a_node15"><a xlink:href="https://github.com/AmosNico/Master-Thesis/tree/main/validator/Validator/Error.html" xlink:title="Error✓">
<ellipse fill="none" stroke="green" cx="626" cy="-917.22" rx="39.42" ry="18.92"/>
<text xml:space="preserve" text-anchor="middle" x="626" y="-913.29" font-family="Times,serif" font-size="14.00">Error✓</text>
</a>
</g>
</g>
<!-- Validator/Error&#45;&gt;Validator/Certificate/SetExpr -->
<g id="edge12" class="edge">
<title>Validator/Error&#45;&gt;Validator/Certificate/SetExpr</title>
<path fill="none" stroke="black" d="M656.96,-905.09C709.63,-883.94 811,-832.65 811,-751.06 811,-751.06 811,-751.06 811,-587.4 811,-464.04 628.33,-432.77 530,-424.88"/>
<polygon fill="black" stroke="black" points="530.47,-421.4 520.24,-424.16 529.95,-428.39 530.47,-421.4"/>
</g>
<!-- Validator/Error&#45;&gt;Validator/PlanningTask/Parser -->
<g id="edge18" class="edge">
<title>Validator/Error&#45;&gt;Validator/PlanningTask/Parser</title>
<path fill="none" stroke="black" d="M589.32,-909.74C532,-899.42 417.83,-878.08 322,-855.3 315.95,-853.86 309.61,-852.25 303.37,-850.6"/>
<polygon fill="black" stroke="black" points="304.33,-847.23 293.76,-848 302.51,-853.99 304.33,-847.23"/>
</g>
<!-- Validator/Certificate/ValidCertificate&#45;&gt;Validator/Certificate/ToDerivation -->
<g id="edge15" class="edge">
<title>Validator/Certificate/ValidCertificate&#45;&gt;Validator/Certificate/ToDerivation</title>
<path fill="none" stroke="black" d="M441.32,-161.29C442.49,-152.04 443.95,-140.58 445.27,-130.13"/>
<polygon fill="black" stroke="black" points="448.72,-130.79 446.5,-120.43 441.77,-129.91 448.72,-130.79"/>
</g>
<!-- Validator/PlanningTask/Core -->
<g id="node17" class="node">
<title>Validator/PlanningTask/Core</title>
<g id="a_node17"><a xlink:href="https://github.com/AmosNico/Master-Thesis/tree/main/validator/Validator/PlanningTask/Core.html" xlink:title="Core✓">
<ellipse fill="none" stroke="green" cx="320" cy="-917.22" rx="37.83" ry="18.92"/>
<text xml:space="preserve" text-anchor="middle" x="320" y="-913.29" font-family="Times,serif" font-size="14.00">Core✓</text>
</a>
</g>
</g>
<!-- Validator/PlanningTask/Core&#45;&gt;Validator/PlanningTask/Basic -->
<g id="edge17" class="edge">
<title>Validator/PlanningTask/Core&#45;&gt;Validator/PlanningTask/Basic</title>
<path fill="none" stroke="black" d="M333.57,-899.5C342.11,-888.98 353.3,-875.2 362.97,-863.28"/>
<polygon fill="black" stroke="black" points="365.46,-865.77 369.05,-855.8 360.03,-861.36 365.46,-865.77"/>
</g>
<!-- Validator/PlanningTask/Core&#45;&gt;Validator/PlanningTask/Parser -->
<g id="edge19" class="edge">
<title>Validator/PlanningTask/Core&#45;&gt;Validator/PlanningTask/Parser</title>
<path fill="none" stroke="black" d="M306.33,-899.11C298.05,-888.75 287.32,-875.32 277.98,-863.64"/>
<polygon fill="black" stroke="black" points="280.78,-861.54 271.81,-855.91 275.31,-865.91 280.78,-861.54"/>
</g>
<!-- Validator/StateSetFormalism/Formula&#45;&gt;Validator/StateSetFormalism/Formalism -->
<g id="edge21" class="edge">
<title>Validator/StateSetFormalism/Formula&#45;&gt;Validator/StateSetFormalism/Formalism</title>
<path fill="none" stroke="black" d="M369.01,-732.53C383.93,-721.33 403.87,-706.36 420.47,-693.9"/>
<polygon fill="black" stroke="black" points="422.19,-696.99 428.08,-688.18 417.98,-691.39 422.19,-696.99"/>
</g>
<!-- Validator/StateSetFormalism/Bdd -->
<g id="node19" class="node">
<title>Validator/StateSetFormalism/Bdd</title>
<g id="a_node19"><a xlink:href="https://github.com/AmosNico/Master-Thesis/tree/main/validator/Validator/StateSetFormalism/Bdd.html" xlink:title="Bdd?">
<ellipse fill="none" stroke="red" cx="91" cy="-669.23" rx="30.37" ry="18"/>
<text xml:space="preserve" text-anchor="middle" x="91" y="-664.18" font-family="Times,serif" font-size="14.00">Bdd?</text>
</a>
</g>
</g>
<!-- Validator/StateSetFormalism/Formula&#45;&gt;Validator/StateSetFormalism/Bdd -->
<g id="edge20" class="edge">
<title>Validator/StateSetFormalism/Formula&#45;&gt;Validator/StateSetFormalism/Bdd</title>
<path fill="none" stroke="black" d="M306.98,-737.64C265.73,-725.75 199.65,-706.35 143,-688.14 137.87,-686.49 132.48,-684.7 127.19,-682.91"/>
<polygon fill="black" stroke="black" points="128.61,-679.7 118.02,-679.77 126.34,-686.32 128.61,-679.7"/>
</g>
<!-- Validator/StateSetFormalism/Horn -->
<g id="node20" class="node">
<title>Validator/StateSetFormalism/Horn</title>
<g id="a_node20"><a xlink:href="https://github.com/AmosNico/Master-Thesis/tree/main/validator/Validator/StateSetFormalism/Horn.html" xlink:title="Horn?">
<ellipse fill="none" stroke="red" cx="198" cy="-669.23" rx="33.95" ry="18"/>
<text xml:space="preserve" text-anchor="middle" x="198" y="-664.18" font-family="Times,serif" font-size="14.00">Horn?</text>
</a>
</g>
</g>
<!-- Validator/StateSetFormalism/Formula&#45;&gt;Validator/StateSetFormalism/Horn -->
<g id="edge24" class="edge">
<title>Validator/StateSetFormalism/Formula&#45;&gt;Validator/StateSetFormalism/Horn</title>
<path fill="none" stroke="black" d="M318.27,-733.86C293.34,-720.67 257.23,-701.56 231.09,-687.74"/>
<polygon fill="black" stroke="black" points="233.07,-684.82 222.6,-683.24 229.8,-691.01 233.07,-684.82"/>
</g>
<!-- Validator/StateSetFormalism/Mods -->
<g id="node21" class="node">
<title>Validator/StateSetFormalism/Mods</title>
<g id="a_node21"><a xlink:href="https://github.com/AmosNico/Master-Thesis/tree/main/validator/Validator/StateSetFormalism/Mods.html" xlink:title="Mods?">
<ellipse fill="none" stroke="red" cx="311" cy="-669.23" rx="36.51" ry="18"/>
<text xml:space="preserve" text-anchor="middle" x="311" y="-664.18" font-family="Times,serif" font-size="14.00">Mods?</text>
</a>
</g>
</g>
<!-- Validator/StateSetFormalism/Formula&#45;&gt;Validator/StateSetFormalism/Mods -->
<g id="edge25" class="edge">
<title>Validator/StateSetFormalism/Formula&#45;&gt;Validator/StateSetFormalism/Mods</title>
<path fill="none" stroke="black" d="M338.83,-731.17C334.27,-721.19 328.5,-708.54 323.39,-697.37"/>
<polygon fill="black" stroke="black" points="326.73,-696.25 319.4,-688.61 320.37,-699.16 326.73,-696.25"/>
</g>
<!-- Validator/StateSetFormalism/Bdd&#45;&gt;Validator/StateSetFormalism/StateSetFormalism -->
<g id="edge27" class="edge">
<title>Validator/StateSetFormalism/Bdd&#45;&gt;Validator/StateSetFormalism/StateSetFormalism</title>
<path fill="none" stroke="black" d="M116.67,-659.03C150.59,-646.87 211.27,-625.13 255.82,-609.17"/>
<polygon fill="black" stroke="black" points="256.83,-612.52 265.07,-605.85 254.47,-605.93 256.83,-612.52"/>
</g>
<!-- Validator/StateSetFormalism/Horn&#45;&gt;Validator/StateSetFormalism/StateSetFormalism -->
<g id="edge28" class="edge">
<title>Validator/StateSetFormalism/Horn&#45;&gt;Validator/StateSetFormalism/StateSetFormalism</title>
<path fill="none" stroke="black" d="M217.94,-654.31C234.09,-643.05 257.23,-626.91 276.39,-613.54"/>
<polygon fill="black" stroke="black" points="278.27,-616.49 284.47,-607.9 274.27,-610.75 278.27,-616.49"/>
</g>
<!-- Validator/StateSetFormalism/Mods&#45;&gt;Validator/StateSetFormalism/StateSetFormalism -->
<g id="edge29" class="edge">
<title>Validator/StateSetFormalism/Mods&#45;&gt;Validator/StateSetFormalism/StateSetFormalism</title>
<path fill="none" stroke="black" d="M311,-650.73C311,-641.44 311,-629.76 311,-619.09"/>
<polygon fill="black" stroke="black" points="314.5,-619.18 311,-609.18 307.5,-619.18 314.5,-619.18"/>
</g>
</g>
</svg>
