<?xml version="1.0" encoding="UTF-8" standalone="no"?>
<!DOCTYPE svg PUBLIC "-//W3C//DTD SVG 1.1//EN"
 "http://www.w3.org/Graphics/SVG/1.1/DTD/svg11.dtd">
<!-- Generated by graphviz version 13.1.2 (20250808.2320)
 -->
<!-- Pages: 1 -->
<svg width="836pt" height="1016pt"
 viewBox="0.00 0.00 836.00 1016.00" xmlns="http://www.w3.org/2000/svg" xmlns:xlink="http://www.w3.org/1999/xlink">
<g id="graph0" class="graph" transform="scale(1 1) rotate(0) translate(4 1012.22)">
<polygon fill="white" stroke="none" points="-4,4 -4,-1012.22 832,-1012.22 832,4 -4,4"/>
<g id="clust94" class="cluster">
<title>cluster./Validator</title>
<path fill="none" stroke="black" d="M20,-64.83C20,-64.83 808,-64.83 808,-64.83 814,-64.83 820,-70.83 820,-76.83 820,-76.83 820,-988.22 820,-988.22 820,-994.22 814,-1000.22 808,-1000.22 808,-1000.22 20,-1000.22 20,-1000.22 14,-1000.22 8,-994.22 8,-988.22 8,-988.22 8,-76.83 8,-76.83 8,-70.83 14,-64.83 20,-64.83"/>
<text xml:space="preserve" text-anchor="middle" x="414" y="-982.92" font-family="Times,serif" font-size="14.00">Validator</text>
</g>
<g id="clust95" class="cluster">
<title>cluster./Validator/Certificate</title>
<path fill="none" stroke="black" d="M299,-72.83C299,-72.83 520,-72.83 520,-72.83 526,-72.83 532,-78.83 532,-84.83 532,-84.83 532,-541.48 532,-541.48 532,-547.48 526,-553.48 520,-553.48 520,-553.48 299,-553.48 299,-553.48 293,-553.48 287,-547.48 287,-541.48 287,-541.48 287,-84.83 287,-84.83 287,-78.83 293,-72.83 299,-72.83"/>
<text xml:space="preserve" text-anchor="middle" x="409.5" y="-536.18" font-family="Times,serif" font-size="14.00">Certificate</text>
</g>
<g id="clust96" class="cluster">
<title>cluster./Validator/PlanningTask</title>
<path fill="none" stroke="black" d="M218,-808.56C218,-808.56 420,-808.56 420,-808.56 426,-808.56 432,-814.56 432,-820.56 432,-820.56 432,-955.72 432,-955.72 432,-961.72 426,-967.72 420,-967.72 420,-967.72 218,-967.72 218,-967.72 212,-967.72 206,-961.72 206,-955.72 206,-955.72 206,-820.56 206,-820.56 206,-814.56 212,-808.56 218,-808.56"/>
<text xml:space="preserve" text-anchor="middle" x="319" y="-950.42" font-family="Times,serif" font-size="14.00">PlanningTask</text>
</g>
<g id="clust97" class="cluster">
<title>cluster./Validator/StateSetFormalism</title>
<path fill="none" stroke="black" d="M65,-561.48C65,-561.48 510,-561.48 510,-561.48 516,-561.48 522,-567.48 522,-573.48 522,-573.48 522,-788.56 522,-788.56 522,-794.56 516,-800.56 510,-800.56 510,-800.56 65,-800.56 65,-800.56 59,-800.56 53,-794.56 53,-788.56 53,-788.56 53,-573.48 53,-573.48 53,-567.48 59,-561.48 65,-561.48"/>
<text xml:space="preserve" text-anchor="middle" x="287.5" y="-783.26" font-family="Times,serif" font-size="14.00">StateSetFormalism</text>
</g>
<!-- Validator -->
<g id="node1" class="node">
<title>Validator</title>
<g id="a_node1"><a xlink:href="https://github.com/AmosNico/Master-Thesis/tree/main/validator/Validator.html" xlink:title="Validator✓">
<ellipse fill="none" stroke="green" cx="544" cy="-18.92" rx="54.27" ry="18.92"/>
<text xml:space="preserve" text-anchor="middle" x="544" y="-14.99" font-family="Times,serif" font-size="14.00">Validator✓</text>
</a>
</g>
</g>
<!-- Validator/Certificate/Parser -->
<g id="node2" class="node">
<title>Validator/Certificate/Parser</title>
<g id="a_node2"><a xlink:href="https://github.com/AmosNico/Master-Thesis/tree/main/validator/Validator/Certificate/Parser.html" xlink:title="Parser✓">
<ellipse fill="none" stroke="green" cx="338" cy="-421.24" rx="43.13" ry="18.92"/>
<text xml:space="preserve" text-anchor="middle" x="338" y="-417.31" font-family="Times,serif" font-size="14.00">Parser✓</text>
</a>
</g>
</g>
<!-- Validator/Certificate/Parser&#45;&gt;Validator -->
<g id="edge1" class="edge">
<title>Validator/Certificate/Parser&#45;&gt;Validator</title>
<path fill="none" stroke="black" d="M373.42,-410.06C429.39,-393.91 532.74,-363.77 540,-359.32 591.43,-327.85 634,-321.79 634,-261.49 634,-261.49 634,-261.49 634,-179.58 634,-126.58 595.9,-74.96 569.28,-45.36"/>
<polygon fill="black" stroke="black" points="572.17,-43.33 562.81,-38.36 567.03,-48.08 572.17,-43.33"/>
</g>
<!-- Validator/Certificate/ToDerivation -->
<g id="node3" class="node">
<title>Validator/Certificate/ToDerivation</title>
<g id="a_node3"><a xlink:href="https://github.com/AmosNico/Master-Thesis/tree/main/validator/Validator/Certificate/ToDerivation.html" xlink:title="ToDerivation✓">
<ellipse fill="none" stroke="green" cx="454" cy="-99.75" rx="70.18" ry="18.92"/>
<text xml:space="preserve" text-anchor="middle" x="454" y="-95.82" font-family="Times,serif" font-size="14.00">ToDerivation✓</text>
</a>
</g>
</g>
<!-- Validator/Certificate/ToDerivation&#45;&gt;Validator -->
<g id="edge2" class="edge">
<title>Validator/Certificate/ToDerivation&#45;&gt;Validator</title>
<path fill="none" stroke="black" d="M473.97,-81.25C486.38,-70.39 502.5,-56.26 516.15,-44.31"/>
<polygon fill="black" stroke="black" points="518.34,-47.04 523.56,-37.82 513.73,-41.77 518.34,-47.04"/>
</g>
<!-- Validator/PlanningTask/Basic -->
<g id="node4" class="node">
<title>Validator/PlanningTask/Basic</title>
<g id="a_node4"><a xlink:href="https://github.com/AmosNico/Master-Thesis/tree/main/validator/Validator/PlanningTask/Basic.html" xlink:title="Basic✓">
<ellipse fill="none" stroke="green" cx="384" cy="-835.47" rx="40.48" ry="18.92"/>
<text xml:space="preserve" text-anchor="middle" x="384" y="-831.55" font-family="Times,serif" font-size="14.00">Basic✓</text>
</a>
</g>
</g>
<!-- Validator/InductiveCertificate -->
<g id="node5" class="node">
<title>Validator/InductiveCertificate</title>
<g id="a_node5"><a xlink:href="https://github.com/AmosNico/Master-Thesis/tree/main/validator/Validator/InductiveCertificate.html" xlink:title="InductiveCertificate✓">
<ellipse fill="none" stroke="green" cx="626" cy="-750.06" rx="95.64" ry="18.92"/>
<text xml:space="preserve" text-anchor="middle" x="626" y="-746.13" font-family="Times,serif" font-size="14.00">InductiveCertificate✓</text>
</a>
</g>
</g>
<!-- Validator/PlanningTask/Basic&#45;&gt;Validator/InductiveCertificate -->
<g id="edge3" class="edge">
<title>Validator/PlanningTask/Basic&#45;&gt;Validator/InductiveCertificate</title>
<path fill="none" stroke="black" d="M405.46,-819.23C412.36,-815.06 420.22,-811.02 428,-808.56 469.66,-795.36 483.89,-812.24 526,-800.56 547.48,-794.6 569.85,-784 587.97,-774.13"/>
<polygon fill="black" stroke="black" points="589.51,-777.28 596.52,-769.34 586.09,-771.18 589.51,-777.28"/>
</g>
<!-- Validator/StateSetFormalism/Formula -->
<g id="node18" class="node">
<title>Validator/StateSetFormalism/Formula</title>
<g id="a_node18"><a xlink:href="https://github.com/AmosNico/Master-Thesis/tree/main/validator/Validator/StateSetFormalism/Formula.html" xlink:title="Formula?">
<ellipse fill="none" stroke="red" cx="347" cy="-750.06" rx="46.75" ry="18"/>
<text xml:space="preserve" text-anchor="middle" x="347" y="-745.01" font-family="Times,serif" font-size="14.00">Formula?</text>
</a>
</g>
</g>
<!-- Validator/PlanningTask/Basic&#45;&gt;Validator/StateSetFormalism/Formula -->
<g id="edge22" class="edge">
<title>Validator/PlanningTask/Basic&#45;&gt;Validator/StateSetFormalism/Formula</title>
<path fill="none" stroke="black" d="M376.15,-816.78C371.23,-805.69 364.78,-791.15 359.2,-778.57"/>
<polygon fill="black" stroke="black" points="362.45,-777.26 355.2,-769.53 356.05,-780.09 362.45,-777.26"/>
</g>
<!-- Validator/ProofSystem -->
<g id="node7" class="node">
<title>Validator/ProofSystem</title>
<g id="a_node7"><a xlink:href="https://github.com/AmosNico/Master-Thesis/tree/main/validator/Validator/ProofSystem.html" xlink:title="ProofSystem✓">
<ellipse fill="none" stroke="green" cx="606" cy="-588.4" rx="69.12" ry="18.92"/>
<text xml:space="preserve" text-anchor="middle" x="606" y="-584.47" font-family="Times,serif" font-size="14.00">ProofSystem✓</text>
</a>
</g>
</g>
<!-- Validator/InductiveCertificate&#45;&gt;Validator/ProofSystem -->
<g id="edge5" class="edge">
<title>Validator/InductiveCertificate&#45;&gt;Validator/ProofSystem</title>
<path fill="none" stroke="black" d="M623.71,-730.74C620.27,-703.31 613.75,-651.3 609.66,-618.59"/>
<polygon fill="black" stroke="black" points="613.17,-618.49 608.46,-609 606.23,-619.36 613.17,-618.49"/>
</g>
<!-- Validator/Basic -->
<g id="node6" class="node">
<title>Validator/Basic</title>
<g id="a_node6"><a xlink:href="https://github.com/AmosNico/Master-Thesis/tree/main/validator/Validator/Basic.html" xlink:title="Basic✓">
<ellipse fill="none" stroke="green" cx="654" cy="-835.47" rx="40.48" ry="18.92"/>
<text xml:space="preserve" text-anchor="middle" x="654" y="-831.55" font-family="Times,serif" font-size="14.00">Basic✓</text>
</a>
</g>
</g>
<!-- Validator/Basic&#45;&gt;Validator/ProofSystem -->
<g id="edge4" class="edge">
<title>Validator/Basic&#45;&gt;Validator/ProofSystem</title>
<path fill="none" stroke="black" d="M693.13,-829.76C711.48,-825.37 731.74,-816.9 743,-800.56 760.51,-775.15 754.56,-759.74 743,-731.14 722.48,-680.39 674.12,-637.72 640.71,-612.85"/>
<polygon fill="black" stroke="black" points="643.1,-610.25 632.95,-607.2 638.98,-615.91 643.1,-610.25"/>
</g>
<!-- Validator/Basic&#45;&gt;Validator/StateSetFormalism/Formula -->
<g id="edge23" class="edge">
<title>Validator/Basic&#45;&gt;Validator/StateSetFormalism/Formula</title>
<path fill="none" stroke="black" d="M614.73,-829.93C545.4,-821.81 407.63,-805.22 398,-800.56 386.22,-794.85 375.44,-785.37 366.86,-776.23"/>
<polygon fill="black" stroke="black" points="369.59,-774.02 360.35,-768.83 364.33,-778.65 369.59,-774.02"/>
</g>
<!-- Validator/ProofSystem&#45;&gt;Validator/Certificate/ToDerivation -->
<g id="edge14" class="edge">
<title>Validator/ProofSystem&#45;&gt;Validator/Certificate/ToDerivation</title>
<path fill="none" stroke="black" d="M599.03,-569.38C588.06,-539.35 568,-476.96 568,-422.24 568,-422.24 568,-422.24 568,-259.49 568,-214.83 570.44,-198.37 545,-161.66 533.51,-145.07 515.89,-131.76 499.22,-121.87"/>
<polygon fill="black" stroke="black" points="501.31,-119.03 490.88,-117.18 497.88,-125.13 501.31,-119.03"/>
</g>
<!-- Validator/StateSetFormalism/Formalism -->
<g id="node8" class="node">
<title>Validator/StateSetFormalism/Formalism</title>
<g id="a_node8"><a xlink:href="https://github.com/AmosNico/Master-Thesis/tree/main/validator/Validator/StateSetFormalism/Formalism.html" xlink:title="Formalism✓">
<ellipse fill="none" stroke="green" cx="452" cy="-669.23" rx="61.7" ry="18.92"/>
<text xml:space="preserve" text-anchor="middle" x="452" y="-665.3" font-family="Times,serif" font-size="14.00">Formalism✓</text>
</a>
</g>
</g>
<!-- Validator/StateSetFormalism/Formalism&#45;&gt;Validator/ProofSystem -->
<g id="edge6" class="edge">
<title>Validator/StateSetFormalism/Formalism&#45;&gt;Validator/ProofSystem</title>
<path fill="none" stroke="black" d="M482.79,-652.46C506.17,-640.5 538.56,-623.92 564.26,-610.76"/>
<polygon fill="black" stroke="black" points="565.81,-613.9 573.12,-606.23 562.62,-607.67 565.81,-613.9"/>
</g>
<!-- Validator/StateSetFormalism/StateSetFormalism -->
<g id="node11" class="node">
<title>Validator/StateSetFormalism/StateSetFormalism</title>
<g id="a_node11"><a xlink:href="https://github.com/AmosNico/Master-Thesis/tree/main/validator/Validator/StateSetFormalism/StateSetFormalism.html" xlink:title="StateSetFormalism✓">
<ellipse fill="none" stroke="green" cx="311" cy="-588.4" rx="92.98" ry="18.92"/>
<text xml:space="preserve" text-anchor="middle" x="311" y="-584.47" font-family="Times,serif" font-size="14.00">StateSetFormalism✓</text>
</a>
</g>
</g>
<!-- Validator/StateSetFormalism/Formalism&#45;&gt;Validator/StateSetFormalism/StateSetFormalism -->
<g id="edge26" class="edge">
<title>Validator/StateSetFormalism/Formalism&#45;&gt;Validator/StateSetFormalism/StateSetFormalism</title>
<path fill="none" stroke="black" d="M423.13,-652.08C402.49,-640.55 374.45,-624.87 351.57,-612.08"/>
<polygon fill="black" stroke="black" points="353.55,-609.17 343.11,-607.35 350.13,-615.28 353.55,-609.17"/>
</g>
<!-- Validator/Certificate/Constraint -->
<g id="node9" class="node">
<title>Validator/Certificate/Constraint</title>
<g id="a_node9"><a xlink:href="https://github.com/AmosNico/Master-Thesis/tree/main/validator/Validator/Certificate/Constraint.html" xlink:title="Constraint✓">
<ellipse fill="none" stroke="green" cx="459" cy="-340.41" rx="59.04" ry="18.92"/>
<text xml:space="preserve" text-anchor="middle" x="459" y="-336.48" font-family="Times,serif" font-size="14.00">Constraint✓</text>
</a>
</g>
</g>
<!-- Validator/Certificate/BasicRules -->
<g id="node10" class="node">
<title>Validator/Certificate/BasicRules</title>
<g id="a_node10"><a xlink:href="https://github.com/AmosNico/Master-Thesis/tree/main/validator/Validator/Certificate/BasicRules.html" xlink:title="BasicRules?">
<ellipse fill="none" stroke="red" cx="449" cy="-260.49" rx="56.47" ry="18"/>
<text xml:space="preserve" text-anchor="middle" x="449" y="-255.44" font-family="Times,serif" font-size="14.00">BasicRules?</text>
</a>
</g>
</g>
<!-- Validator/Certificate/Constraint&#45;&gt;Validator/Certificate/BasicRules -->
<g id="edge7" class="edge">
<title>Validator/Certificate/Constraint&#45;&gt;Validator/Certificate/BasicRules</title>
<path fill="none" stroke="black" d="M456.68,-321.33C455.49,-312.06 454.01,-300.54 452.67,-290.09"/>
<polygon fill="black" stroke="black" points="456.18,-289.9 451.43,-280.43 449.23,-290.79 456.18,-289.9"/>
</g>
<!-- Validator/Certificate/ValidCertificate -->
<g id="node16" class="node">
<title>Validator/Certificate/ValidCertificate</title>
<g id="a_node16"><a xlink:href="https://github.com/AmosNico/Master-Thesis/tree/main/validator/Validator/Certificate/ValidCertificate.html" xlink:title="ValidCertificate✓">
<ellipse fill="none" stroke="green" cx="444" cy="-180.58" rx="79.73" ry="18.92"/>
<text xml:space="preserve" text-anchor="middle" x="444" y="-176.65" font-family="Times,serif" font-size="14.00">ValidCertificate✓</text>
</a>
</g>
</g>
<!-- Validator/Certificate/BasicRules&#45;&gt;Validator/Certificate/ValidCertificate -->
<g id="edge16" class="edge">
<title>Validator/Certificate/BasicRules&#45;&gt;Validator/Certificate/ValidCertificate</title>
<path fill="none" stroke="black" d="M447.89,-242.2C447.31,-233.08 446.57,-221.63 445.9,-211.15"/>
<polygon fill="black" stroke="black" points="449.41,-211.17 445.27,-201.42 442.42,-211.62 449.41,-211.17"/>
</g>
<!-- Validator/Certificate/Certificate -->
<g id="node12" class="node">
<title>Validator/Certificate/Certificate</title>
<g id="a_node12"><a xlink:href="https://github.com/AmosNico/Master-Thesis/tree/main/validator/Validator/Certificate/Certificate.html" xlink:title="Certificate✓">
<ellipse fill="none" stroke="green" cx="355" cy="-502.07" rx="59.57" ry="18.92"/>
<text xml:space="preserve" text-anchor="middle" x="355" y="-498.14" font-family="Times,serif" font-size="14.00">Certificate✓</text>
</a>
</g>
</g>
<!-- Validator/StateSetFormalism/StateSetFormalism&#45;&gt;Validator/Certificate/Certificate -->
<g id="edge8" class="edge">
<title>Validator/StateSetFormalism/StateSetFormalism&#45;&gt;Validator/Certificate/Certificate</title>
<path fill="none" stroke="black" d="M320.55,-569.1C326.35,-557.97 333.88,-543.54 340.42,-531.01"/>
<polygon fill="black" stroke="black" points="343.4,-532.87 344.92,-522.38 337.19,-529.63 343.4,-532.87"/>
</g>
<!-- Validator/Certificate/Certificate&#45;&gt;Validator/Certificate/Parser -->
<g id="edge11" class="edge">
<title>Validator/Certificate/Certificate&#45;&gt;Validator/Certificate/Parser</title>
<path fill="none" stroke="black" d="M351.06,-482.78C349.06,-473.53 346.59,-462.07 344.34,-451.62"/>
<polygon fill="black" stroke="black" points="347.77,-450.94 342.24,-441.9 340.93,-452.41 347.77,-450.94"/>
</g>
<!-- Validator/Certificate/SetExpr -->
<g id="node13" class="node">
<title>Validator/Certificate/SetExpr</title>
<g id="a_node13"><a xlink:href="https://github.com/AmosNico/Master-Thesis/tree/main/validator/Validator/Certificate/SetExpr.html" xlink:title="SetExpr✓">
<ellipse fill="none" stroke="green" cx="474" cy="-421.24" rx="50.03" ry="18.92"/>
<text xml:space="preserve" text-anchor="middle" x="474" y="-417.31" font-family="Times,serif" font-size="14.00">SetExpr✓</text>
</a>
</g>
</g>
<!-- Validator/Certificate/Certificate&#45;&gt;Validator/Certificate/SetExpr -->
<g id="edge13" class="edge">
<title>Validator/Certificate/Certificate&#45;&gt;Validator/Certificate/SetExpr</title>
<path fill="none" stroke="black" d="M379.95,-484.54C397.47,-472.93 421.12,-457.26 440.32,-444.55"/>
<polygon fill="black" stroke="black" points="442.23,-447.48 448.64,-439.04 438.37,-441.64 442.23,-447.48"/>
</g>
<!-- Validator/Certificate/SetExpr&#45;&gt;Validator/Certificate/Constraint -->
<g id="edge9" class="edge">
<title>Validator/Certificate/SetExpr&#45;&gt;Validator/Certificate/Constraint</title>
<path fill="none" stroke="black" d="M470.52,-401.95C468.76,-392.7 466.58,-381.24 464.59,-370.79"/>
<polygon fill="black" stroke="black" points="468.05,-370.25 462.74,-361.08 461.17,-371.55 468.05,-370.25"/>
</g>
<!-- Validator/PlanningTask/Parser -->
<g id="node14" class="node">
<title>Validator/PlanningTask/Parser</title>
<g id="a_node14"><a xlink:href="https://github.com/AmosNico/Master-Thesis/tree/main/validator/Validator/PlanningTask/Parser.html" xlink:title="Parser✓">
<ellipse fill="none" stroke="green" cx="257" cy="-835.47" rx="43.13" ry="18.92"/>
<text xml:space="preserve" text-anchor="middle" x="257" y="-831.55" font-family="Times,serif" font-size="14.00">Parser✓</text>
</a>
</g>
</g>
<!-- Validator/PlanningTask/Parser&#45;&gt;Validator/Certificate/Parser -->
<g id="edge10" class="edge">
<title>Validator/PlanningTask/Parser&#45;&gt;Validator/Certificate/Parser</title>
<path fill="none" stroke="black" d="M213.89,-833.31C158.54,-830.88 66.8,-823.43 43,-800.56 0.41,-759.63 17,-729.29 17,-670.23 17,-670.23 17,-670.23 17,-587.4 17,-468.69 192.7,-435.23 284.13,-425.85"/>
<polygon fill="black" stroke="black" points="284.25,-429.36 293.87,-424.92 283.58,-422.39 284.25,-429.36"/>
</g>
<!-- Validator/Error -->
<g id="node15" class="node">
<title>Validator/Error</title>
<g id="a_node15"><a xlink:href="https://github.com/AmosNico/Master-Thesis/tree/main/validator/Validator/Error.html" xlink:title="Error✓">
<ellipse fill="none" stroke="green" cx="626" cy="-916.3" rx="39.42" ry="18.92"/>
<text xml:space="preserve" text-anchor="middle" x="626" y="-912.38" font-family="Times,serif" font-size="14.00">Error✓</text>
</a>
</g>
</g>
<!-- Validator/Error&#45;&gt;Validator/Certificate/SetExpr -->
<g id="edge12" class="edge">
<title>Validator/Error&#45;&gt;Validator/Certificate/SetExpr</title>
<path fill="none" stroke="black" d="M656.96,-904.29C709.63,-883.34 811,-832.45 811,-751.06 811,-751.06 811,-751.06 811,-587.4 811,-465.93 632.29,-433.79 535.15,-425.29"/>
<polygon fill="black" stroke="black" points="535.48,-421.8 525.23,-424.49 534.92,-428.78 535.48,-421.8"/>
</g>
<!-- Validator/Error&#45;&gt;Validator/PlanningTask/Parser -->
<g id="edge18" class="edge">
<title>Validator/Error&#45;&gt;Validator/PlanningTask/Parser</title>
<path fill="none" stroke="black" d="M589.32,-908.82C532,-898.51 417.83,-877.16 322,-854.39 315.95,-852.95 309.61,-851.34 303.37,-849.68"/>
<polygon fill="black" stroke="black" points="304.33,-846.32 293.76,-847.09 302.51,-853.08 304.33,-846.32"/>
</g>
<!-- Validator/Certificate/ValidCertificate&#45;&gt;Validator/Certificate/ToDerivation -->
<g id="edge15" class="edge">
<title>Validator/Certificate/ValidCertificate&#45;&gt;Validator/Certificate/ToDerivation</title>
<path fill="none" stroke="black" d="M446.32,-161.29C447.49,-152.04 448.95,-140.58 450.27,-130.13"/>
<polygon fill="black" stroke="black" points="453.72,-130.79 451.5,-120.43 446.77,-129.91 453.72,-130.79"/>
</g>
<!-- Validator/PlanningTask/Core -->
<g id="node17" class="node">
<title>Validator/PlanningTask/Core</title>
<g id="a_node17"><a xlink:href="https://github.com/AmosNico/Master-Thesis/tree/main/validator/Validator/PlanningTask/Core.html" xlink:title="Core✓">
<ellipse fill="none" stroke="green" cx="320" cy="-916.3" rx="37.83" ry="18.92"/>
<text xml:space="preserve" text-anchor="middle" x="320" y="-912.38" font-family="Times,serif" font-size="14.00">Core✓</text>
</a>
</g>
</g>
<!-- Validator/PlanningTask/Core&#45;&gt;Validator/PlanningTask/Basic -->
<g id="edge17" class="edge">
<title>Validator/PlanningTask/Core&#45;&gt;Validator/PlanningTask/Basic</title>
<path fill="none" stroke="black" d="M333.57,-898.58C342.11,-888.07 353.3,-874.28 362.97,-862.37"/>
<polygon fill="black" stroke="black" points="365.46,-864.86 369.05,-854.89 360.03,-860.44 365.46,-864.86"/>
</g>
<!-- Validator/PlanningTask/Core&#45;&gt;Validator/PlanningTask/Parser -->
<g id="edge19" class="edge">
<title>Validator/PlanningTask/Core&#45;&gt;Validator/PlanningTask/Parser</title>
<path fill="none" stroke="black" d="M306.33,-898.2C298.05,-887.84 287.32,-874.41 277.98,-862.72"/>
<polygon fill="black" stroke="black" points="280.78,-860.62 271.81,-855 275.31,-864.99 280.78,-860.62"/>
</g>
<!-- Validator/StateSetFormalism/Formula&#45;&gt;Validator/StateSetFormalism/Formalism -->
<g id="edge21" class="edge">
<title>Validator/StateSetFormalism/Formula&#45;&gt;Validator/StateSetFormalism/Formalism</title>
<path fill="none" stroke="black" d="M367.74,-733.48C382.77,-722.2 403.36,-706.74 420.42,-693.93"/>
<polygon fill="black" stroke="black" points="422.37,-696.84 428.27,-688.04 418.17,-691.25 422.37,-696.84"/>
</g>
<!-- Validator/StateSetFormalism/Bdd -->
<g id="node19" class="node">
<title>Validator/StateSetFormalism/Bdd</title>
<g id="a_node19"><a xlink:href="https://github.com/AmosNico/Master-Thesis/tree/main/validator/Validator/StateSetFormalism/Bdd.html" xlink:title="Bdd?">
<ellipse fill="none" stroke="red" cx="91" cy="-669.23" rx="30.37" ry="18"/>
<text xml:space="preserve" text-anchor="middle" x="91" y="-664.18" font-family="Times,serif" font-size="14.00">Bdd?</text>
</a>
</g>
</g>
<!-- Validator/StateSetFormalism/Formula&#45;&gt;Validator/StateSetFormalism/Bdd -->
<g id="edge20" class="edge">
<title>Validator/StateSetFormalism/Formula&#45;&gt;Validator/StateSetFormalism/Bdd</title>
<path fill="none" stroke="black" d="M310.38,-738.62C269.44,-726.83 201.24,-706.86 143,-688.14 137.87,-686.49 132.48,-684.7 127.19,-682.91"/>
<polygon fill="black" stroke="black" points="128.61,-679.7 118.02,-679.77 126.34,-686.32 128.61,-679.7"/>
</g>
<!-- Validator/StateSetFormalism/Horn -->
<g id="node20" class="node">
<title>Validator/StateSetFormalism/Horn</title>
<g id="a_node20"><a xlink:href="https://github.com/AmosNico/Master-Thesis/tree/main/validator/Validator/StateSetFormalism/Horn.html" xlink:title="Horn?">
<ellipse fill="none" stroke="red" cx="198" cy="-669.23" rx="33.95" ry="18"/>
<text xml:space="preserve" text-anchor="middle" x="198" y="-664.18" font-family="Times,serif" font-size="14.00">Horn?</text>
</a>
</g>
</g>
<!-- Validator/StateSetFormalism/Formula&#45;&gt;Validator/StateSetFormalism/Horn -->
<g id="edge24" class="edge">
<title>Validator/StateSetFormalism/Formula&#45;&gt;Validator/StateSetFormalism/Horn</title>
<path fill="none" stroke="black" d="M320.36,-734.96C295.53,-721.83 258.4,-702.18 231.56,-687.98"/>
<polygon fill="black" stroke="black" points="233.28,-684.93 222.8,-683.35 230.01,-691.12 233.28,-684.93"/>
</g>
<!-- Validator/StateSetFormalism/Mods -->
<g id="node21" class="node">
<title>Validator/StateSetFormalism/Mods</title>
<g id="a_node21"><a xlink:href="https://github.com/AmosNico/Master-Thesis/tree/main/validator/Validator/StateSetFormalism/Mods.html" xlink:title="Mods?">
<ellipse fill="none" stroke="red" cx="311" cy="-669.23" rx="36.51" ry="18"/>
<text xml:space="preserve" text-anchor="middle" x="311" y="-664.18" font-family="Times,serif" font-size="14.00">Mods?</text>
</a>
</g>
</g>
<!-- Validator/StateSetFormalism/Formula&#45;&gt;Validator/StateSetFormalism/Mods -->
<g id="edge25" class="edge">
<title>Validator/StateSetFormalism/Formula&#45;&gt;Validator/StateSetFormalism/Mods</title>
<path fill="none" stroke="black" d="M339.19,-731.95C334.61,-721.93 328.73,-709.04 323.52,-697.64"/>
<polygon fill="black" stroke="black" points="326.76,-696.32 319.42,-688.67 320.4,-699.23 326.76,-696.32"/>
</g>
<!-- Validator/StateSetFormalism/Bdd&#45;&gt;Validator/StateSetFormalism/StateSetFormalism -->
<g id="edge27" class="edge">
<title>Validator/StateSetFormalism/Bdd&#45;&gt;Validator/StateSetFormalism/StateSetFormalism</title>
<path fill="none" stroke="black" d="M116.67,-659.03C150.59,-646.87 211.27,-625.13 255.82,-609.17"/>
<polygon fill="black" stroke="black" points="256.83,-612.52 265.07,-605.85 254.47,-605.93 256.83,-612.52"/>
</g>
<!-- Validator/StateSetFormalism/Horn&#45;&gt;Validator/StateSetFormalism/StateSetFormalism -->
<g id="edge28" class="edge">
<title>Validator/StateSetFormalism/Horn&#45;&gt;Validator/StateSetFormalism/StateSetFormalism</title>
<path fill="none" stroke="black" d="M217.94,-654.31C234.09,-643.05 257.23,-626.91 276.39,-613.54"/>
<polygon fill="black" stroke="black" points="278.27,-616.49 284.47,-607.9 274.27,-610.75 278.27,-616.49"/>
</g>
<!-- Validator/StateSetFormalism/Mods&#45;&gt;Validator/StateSetFormalism/StateSetFormalism -->
<g id="edge29" class="edge">
<title>Validator/StateSetFormalism/Mods&#45;&gt;Validator/StateSetFormalism/StateSetFormalism</title>
<path fill="none" stroke="black" d="M311,-650.73C311,-641.44 311,-629.76 311,-619.09"/>
<polygon fill="black" stroke="black" points="314.5,-619.18 311,-609.18 307.5,-619.18 314.5,-619.18"/>
</g>
</g>
</svg>
