<?xml version="1.0" encoding="UTF-8" standalone="no"?>
<!DOCTYPE svg PUBLIC "-//W3C//DTD SVG 1.1//EN"
 "http://www.w3.org/Graphics/SVG/1.1/DTD/svg11.dtd">
<!-- Generated by graphviz version 13.1.2 (20250808.2320)
 -->
<!-- Pages: 1 -->
<svg width="1027pt" height="1016pt"
 viewBox="0.00 0.00 1027.00 1016.00" xmlns="http://www.w3.org/2000/svg" xmlns:xlink="http://www.w3.org/1999/xlink">
<g id="graph0" class="graph" transform="scale(1 1) rotate(0) translate(4 1012.22)">
<polygon fill="white" stroke="none" points="-4,4 -4,-1012.22 1023,-1012.22 1023,4 -4,4"/>
<g id="clust103" class="cluster">
<title>cluster./Validator</title>
<path fill="none" stroke="black" d="M20,-64.83C20,-64.83 950,-64.83 950,-64.83 956,-64.83 962,-70.83 962,-76.83 962,-76.83 962,-988.22 962,-988.22 962,-994.22 956,-1000.22 950,-1000.22 950,-1000.22 20,-1000.22 20,-1000.22 14,-1000.22 8,-994.22 8,-988.22 8,-988.22 8,-76.83 8,-76.83 8,-70.83 14,-64.83 20,-64.83"/>
<text xml:space="preserve" text-anchor="middle" x="485" y="-982.92" font-family="Times,serif" font-size="14.00">Validator</text>
</g>
<g id="clust104" class="cluster">
<title>cluster./Validator/Certificate</title>
<path fill="none" stroke="black" d="M684,-72.83C684,-72.83 905,-72.83 905,-72.83 911,-72.83 917,-78.83 917,-84.83 917,-84.83 917,-541.48 917,-541.48 917,-547.48 911,-553.48 905,-553.48 905,-553.48 684,-553.48 684,-553.48 678,-553.48 672,-547.48 672,-541.48 672,-541.48 672,-84.83 672,-84.83 672,-78.83 678,-72.83 684,-72.83"/>
<text xml:space="preserve" text-anchor="middle" x="794.5" y="-536.18" font-family="Times,serif" font-size="14.00">Certificate</text>
</g>
<g id="clust105" class="cluster">
<title>cluster./Validator/PlanningTask</title>
<path fill="none" stroke="black" d="M365,-808.56C365,-808.56 567,-808.56 567,-808.56 573,-808.56 579,-814.56 579,-820.56 579,-820.56 579,-955.72 579,-955.72 579,-961.72 573,-967.72 567,-967.72 567,-967.72 365,-967.72 365,-967.72 359,-967.72 353,-961.72 353,-955.72 353,-955.72 353,-820.56 353,-820.56 353,-814.56 359,-808.56 365,-808.56"/>
<text xml:space="preserve" text-anchor="middle" x="466" y="-950.42" font-family="Times,serif" font-size="14.00">PlanningTask</text>
</g>
<g id="clust106" class="cluster">
<title>cluster./Validator/StateSetFormalism</title>
<path fill="none" stroke="black" d="M65,-561.48C65,-561.48 652,-561.48 652,-561.48 658,-561.48 664,-567.48 664,-573.48 664,-573.48 664,-788.56 664,-788.56 664,-794.56 658,-800.56 652,-800.56 652,-800.56 65,-800.56 65,-800.56 59,-800.56 53,-794.56 53,-788.56 53,-788.56 53,-573.48 53,-573.48 53,-567.48 59,-561.48 65,-561.48"/>
<text xml:space="preserve" text-anchor="middle" x="358.5" y="-783.26" font-family="Times,serif" font-size="14.00">StateSetFormalism</text>
</g>
<!-- Validator -->
<g id="node1" class="node">
<title>Validator</title>
<g id="a_node1"><a xlink:href="https://github.com/AmosNico/Master-Thesis/tree/main/validator/Validator.html" xlink:title="Validator✓">
<ellipse fill="none" stroke="green" cx="929" cy="-18.92" rx="54.27" ry="18.92"/>
<text xml:space="preserve" text-anchor="middle" x="929" y="-14.99" font-family="Times,serif" font-size="14.00">Validator✓</text>
</a>
</g>
</g>
<!-- Validator/Certificate/Parser -->
<g id="node2" class="node">
<title>Validator/Certificate/Parser</title>
<g id="a_node2"><a xlink:href="https://github.com/AmosNico/Master-Thesis/tree/main/validator/Validator/Certificate/Parser.html" xlink:title="Parser✓">
<ellipse fill="none" stroke="green" cx="723" cy="-421.24" rx="43.13" ry="18.92"/>
<text xml:space="preserve" text-anchor="middle" x="723" y="-417.31" font-family="Times,serif" font-size="14.00">Parser✓</text>
</a>
</g>
</g>
<!-- Validator/Certificate/Parser&#45;&gt;Validator -->
<g id="edge1" class="edge">
<title>Validator/Certificate/Parser&#45;&gt;Validator</title>
<path fill="none" stroke="black" d="M758.42,-410.06C814.39,-393.91 917.74,-363.77 925,-359.32 976.43,-327.85 1019,-321.79 1019,-261.49 1019,-261.49 1019,-261.49 1019,-179.58 1019,-126.58 980.9,-74.96 954.28,-45.36"/>
<polygon fill="black" stroke="black" points="957.17,-43.33 947.81,-38.36 952.03,-48.08 957.17,-43.33"/>
</g>
<!-- Validator/Certificate/ToDerivation -->
<g id="node3" class="node">
<title>Validator/Certificate/ToDerivation</title>
<g id="a_node3"><a xlink:href="https://github.com/AmosNico/Master-Thesis/tree/main/validator/Validator/Certificate/ToDerivation.html" xlink:title="ToDerivation✓">
<ellipse fill="none" stroke="green" cx="839" cy="-99.75" rx="70.18" ry="18.92"/>
<text xml:space="preserve" text-anchor="middle" x="839" y="-95.82" font-family="Times,serif" font-size="14.00">ToDerivation✓</text>
</a>
</g>
</g>
<!-- Validator/Certificate/ToDerivation&#45;&gt;Validator -->
<g id="edge2" class="edge">
<title>Validator/Certificate/ToDerivation&#45;&gt;Validator</title>
<path fill="none" stroke="black" d="M858.97,-81.25C871.38,-70.39 887.5,-56.26 901.15,-44.31"/>
<polygon fill="black" stroke="black" points="903.34,-47.04 908.56,-37.82 898.73,-41.77 903.34,-47.04"/>
</g>
<!-- Validator/PlanningTask/Basic -->
<g id="node4" class="node">
<title>Validator/PlanningTask/Basic</title>
<g id="a_node4"><a xlink:href="https://github.com/AmosNico/Master-Thesis/tree/main/validator/Validator/PlanningTask/Basic.html" xlink:title="Basic✓">
<ellipse fill="none" stroke="green" cx="531" cy="-835.47" rx="40.48" ry="18.92"/>
<text xml:space="preserve" text-anchor="middle" x="531" y="-831.55" font-family="Times,serif" font-size="14.00">Basic✓</text>
</a>
</g>
</g>
<!-- Validator/InductiveCertificate -->
<g id="node5" class="node">
<title>Validator/InductiveCertificate</title>
<g id="a_node5"><a xlink:href="https://github.com/AmosNico/Master-Thesis/tree/main/validator/Validator/InductiveCertificate.html" xlink:title="InductiveCertificate✓">
<ellipse fill="none" stroke="green" cx="768" cy="-750.06" rx="95.64" ry="18.92"/>
<text xml:space="preserve" text-anchor="middle" x="768" y="-746.13" font-family="Times,serif" font-size="14.00">InductiveCertificate✓</text>
</a>
</g>
</g>
<!-- Validator/PlanningTask/Basic&#45;&gt;Validator/InductiveCertificate -->
<g id="edge3" class="edge">
<title>Validator/PlanningTask/Basic&#45;&gt;Validator/InductiveCertificate</title>
<path fill="none" stroke="black" d="M552.47,-819.25C559.36,-815.08 567.23,-811.04 575,-808.56 614.52,-795.94 628.05,-811.73 668,-800.56 689.46,-794.55 711.84,-783.95 729.96,-774.09"/>
<polygon fill="black" stroke="black" points="731.49,-777.24 738.51,-769.31 728.08,-771.13 731.49,-777.24"/>
</g>
<!-- Validator/StateSetFormalism/Formula -->
<g id="node18" class="node">
<title>Validator/StateSetFormalism/Formula</title>
<g id="a_node18"><a xlink:href="https://github.com/AmosNico/Master-Thesis/tree/main/validator/Validator/StateSetFormalism/Formula.html" xlink:title="Formula?">
<ellipse fill="none" stroke="red" cx="459" cy="-750.06" rx="46.75" ry="18"/>
<text xml:space="preserve" text-anchor="middle" x="459" y="-745.01" font-family="Times,serif" font-size="14.00">Formula?</text>
</a>
</g>
</g>
<!-- Validator/PlanningTask/Basic&#45;&gt;Validator/StateSetFormalism/Formula -->
<g id="edge22" class="edge">
<title>Validator/PlanningTask/Basic&#45;&gt;Validator/StateSetFormalism/Formula</title>
<path fill="none" stroke="black" d="M516.43,-817.59C506.12,-805.64 492.11,-789.42 480.51,-775.98"/>
<polygon fill="black" stroke="black" points="483.48,-774.06 474.29,-768.77 478.18,-778.63 483.48,-774.06"/>
</g>
<!-- Validator/ProofSystem -->
<g id="node7" class="node">
<title>Validator/ProofSystem</title>
<g id="a_node7"><a xlink:href="https://github.com/AmosNico/Master-Thesis/tree/main/validator/Validator/ProofSystem.html" xlink:title="ProofSystem✓">
<ellipse fill="none" stroke="green" cx="786" cy="-588.4" rx="69.12" ry="18.92"/>
<text xml:space="preserve" text-anchor="middle" x="786" y="-584.47" font-family="Times,serif" font-size="14.00">ProofSystem✓</text>
</a>
</g>
</g>
<!-- Validator/InductiveCertificate&#45;&gt;Validator/ProofSystem -->
<g id="edge5" class="edge">
<title>Validator/InductiveCertificate&#45;&gt;Validator/ProofSystem</title>
<path fill="none" stroke="black" d="M770.06,-730.74C773.16,-703.31 779.02,-651.3 782.71,-618.59"/>
<polygon fill="black" stroke="black" points="786.15,-619.33 783.79,-609 779.19,-618.55 786.15,-619.33"/>
</g>
<!-- Validator/Basic -->
<g id="node6" class="node">
<title>Validator/Basic</title>
<g id="a_node6"><a xlink:href="https://github.com/AmosNico/Master-Thesis/tree/main/validator/Validator/Basic.html" xlink:title="Basic✓">
<ellipse fill="none" stroke="green" cx="798" cy="-835.47" rx="40.48" ry="18.92"/>
<text xml:space="preserve" text-anchor="middle" x="798" y="-831.55" font-family="Times,serif" font-size="14.00">Basic✓</text>
</a>
</g>
</g>
<!-- Validator/Basic&#45;&gt;Validator/ProofSystem -->
<g id="edge4" class="edge">
<title>Validator/Basic&#45;&gt;Validator/ProofSystem</title>
<path fill="none" stroke="black" d="M836.73,-829.41C854.55,-824.93 874.11,-816.48 885,-800.56 902.41,-775.09 894.26,-760.57 885,-731.14 870.67,-685.61 835.94,-641.95 811.69,-615.41"/>
<polygon fill="black" stroke="black" points="814.33,-613.1 804.94,-608.19 809.21,-617.88 814.33,-613.1"/>
</g>
<!-- Validator/Basic&#45;&gt;Validator/StateSetFormalism/Formula -->
<g id="edge23" class="edge">
<title>Validator/Basic&#45;&gt;Validator/StateSetFormalism/Formula</title>
<path fill="none" stroke="black" d="M759.13,-829.39C717.18,-823.96 648.4,-815.25 589,-808.56 571.47,-806.58 526,-808 510,-800.56 498.13,-795.03 487.34,-785.58 478.77,-776.42"/>
<polygon fill="black" stroke="black" points="481.49,-774.21 472.27,-768.98 476.22,-778.82 481.49,-774.21"/>
</g>
<!-- Validator/ProofSystem&#45;&gt;Validator/Certificate/ToDerivation -->
<g id="edge14" class="edge">
<title>Validator/ProofSystem&#45;&gt;Validator/Certificate/ToDerivation</title>
<path fill="none" stroke="black" d="M821.42,-571.78C870.44,-547.47 953,-495.63 953,-422.24 953,-422.24 953,-422.24 953,-259.49 953,-214.83 955.44,-198.37 930,-161.66 918.51,-145.07 900.89,-131.76 884.22,-121.87"/>
<polygon fill="black" stroke="black" points="886.31,-119.03 875.88,-117.18 882.88,-125.13 886.31,-119.03"/>
</g>
<!-- Validator/StateSetFormalism/Formalism -->
<g id="node8" class="node">
<title>Validator/StateSetFormalism/Formalism</title>
<g id="a_node8"><a xlink:href="https://github.com/AmosNico/Master-Thesis/tree/main/validator/Validator/StateSetFormalism/Formalism.html" xlink:title="Formalism✓">
<ellipse fill="none" stroke="green" cx="594" cy="-669.23" rx="61.7" ry="18.92"/>
<text xml:space="preserve" text-anchor="middle" x="594" y="-665.3" font-family="Times,serif" font-size="14.00">Formalism✓</text>
</a>
</g>
</g>
<!-- Validator/StateSetFormalism/Formalism&#45;&gt;Validator/ProofSystem -->
<g id="edge6" class="edge">
<title>Validator/StateSetFormalism/Formalism&#45;&gt;Validator/ProofSystem</title>
<path fill="none" stroke="black" d="M629.66,-653.58C660.29,-641.01 704.7,-622.78 738.37,-608.95"/>
<polygon fill="black" stroke="black" points="739.57,-612.24 747.49,-605.21 736.91,-605.77 739.57,-612.24"/>
</g>
<!-- Validator/StateSetFormalism/StateSetFormalism -->
<g id="node11" class="node">
<title>Validator/StateSetFormalism/StateSetFormalism</title>
<g id="a_node11"><a xlink:href="https://github.com/AmosNico/Master-Thesis/tree/main/validator/Validator/StateSetFormalism/StateSetFormalism.html" xlink:title="StateSetFormalism✓">
<ellipse fill="none" stroke="green" cx="459" cy="-588.4" rx="92.98" ry="18.92"/>
<text xml:space="preserve" text-anchor="middle" x="459" y="-584.47" font-family="Times,serif" font-size="14.00">StateSetFormalism✓</text>
</a>
</g>
</g>
<!-- Validator/StateSetFormalism/Formalism&#45;&gt;Validator/StateSetFormalism/StateSetFormalism -->
<g id="edge26" class="edge">
<title>Validator/StateSetFormalism/Formalism&#45;&gt;Validator/StateSetFormalism/StateSetFormalism</title>
<path fill="none" stroke="black" d="M566.03,-651.89C546.43,-640.45 519.96,-624.99 498.25,-612.31"/>
<polygon fill="black" stroke="black" points="500.04,-609.31 489.64,-607.29 496.51,-615.36 500.04,-609.31"/>
</g>
<!-- Validator/Certificate/Constraint -->
<g id="node9" class="node">
<title>Validator/Certificate/Constraint</title>
<g id="a_node9"><a xlink:href="https://github.com/AmosNico/Master-Thesis/tree/main/validator/Validator/Certificate/Constraint.html" xlink:title="Constraint✓">
<ellipse fill="none" stroke="green" cx="844" cy="-340.41" rx="59.04" ry="18.92"/>
<text xml:space="preserve" text-anchor="middle" x="844" y="-336.48" font-family="Times,serif" font-size="14.00">Constraint✓</text>
</a>
</g>
</g>
<!-- Validator/Certificate/BasicRules -->
<g id="node10" class="node">
<title>Validator/Certificate/BasicRules</title>
<g id="a_node10"><a xlink:href="https://github.com/AmosNico/Master-Thesis/tree/main/validator/Validator/Certificate/BasicRules.html" xlink:title="BasicRules?">
<ellipse fill="none" stroke="red" cx="834" cy="-260.49" rx="56.47" ry="18"/>
<text xml:space="preserve" text-anchor="middle" x="834" y="-255.44" font-family="Times,serif" font-size="14.00">BasicRules?</text>
</a>
</g>
</g>
<!-- Validator/Certificate/Constraint&#45;&gt;Validator/Certificate/BasicRules -->
<g id="edge7" class="edge">
<title>Validator/Certificate/Constraint&#45;&gt;Validator/Certificate/BasicRules</title>
<path fill="none" stroke="black" d="M841.68,-321.33C840.49,-312.06 839.01,-300.54 837.67,-290.09"/>
<polygon fill="black" stroke="black" points="841.18,-289.9 836.43,-280.43 834.23,-290.79 841.18,-289.9"/>
</g>
<!-- Validator/Certificate/ValidCertificate -->
<g id="node16" class="node">
<title>Validator/Certificate/ValidCertificate</title>
<g id="a_node16"><a xlink:href="https://github.com/AmosNico/Master-Thesis/tree/main/validator/Validator/Certificate/ValidCertificate.html" xlink:title="ValidCertificate✓">
<ellipse fill="none" stroke="green" cx="829" cy="-180.58" rx="79.73" ry="18.92"/>
<text xml:space="preserve" text-anchor="middle" x="829" y="-176.65" font-family="Times,serif" font-size="14.00">ValidCertificate✓</text>
</a>
</g>
</g>
<!-- Validator/Certificate/BasicRules&#45;&gt;Validator/Certificate/ValidCertificate -->
<g id="edge16" class="edge">
<title>Validator/Certificate/BasicRules&#45;&gt;Validator/Certificate/ValidCertificate</title>
<path fill="none" stroke="black" d="M832.89,-242.2C832.31,-233.08 831.57,-221.63 830.9,-211.15"/>
<polygon fill="black" stroke="black" points="834.41,-211.17 830.27,-201.42 827.42,-211.62 834.41,-211.17"/>
</g>
<!-- Validator/Certificate/Certificate -->
<g id="node12" class="node">
<title>Validator/Certificate/Certificate</title>
<g id="a_node12"><a xlink:href="https://github.com/AmosNico/Master-Thesis/tree/main/validator/Validator/Certificate/Certificate.html" xlink:title="Certificate✓">
<ellipse fill="none" stroke="green" cx="740" cy="-502.07" rx="59.57" ry="18.92"/>
<text xml:space="preserve" text-anchor="middle" x="740" y="-498.14" font-family="Times,serif" font-size="14.00">Certificate✓</text>
</a>
</g>
</g>
<!-- Validator/StateSetFormalism/StateSetFormalism&#45;&gt;Validator/Certificate/Certificate -->
<g id="edge8" class="edge">
<title>Validator/StateSetFormalism/StateSetFormalism&#45;&gt;Validator/Certificate/Certificate</title>
<path fill="none" stroke="black" d="M509.89,-572.12C559.98,-557.09 636.17,-534.23 686.99,-518.98"/>
<polygon fill="black" stroke="black" points="687.72,-522.41 696.3,-516.18 685.71,-515.7 687.72,-522.41"/>
</g>
<!-- Validator/Certificate/Certificate&#45;&gt;Validator/Certificate/Parser -->
<g id="edge11" class="edge">
<title>Validator/Certificate/Certificate&#45;&gt;Validator/Certificate/Parser</title>
<path fill="none" stroke="black" d="M736.06,-482.78C734.06,-473.53 731.59,-462.07 729.34,-451.62"/>
<polygon fill="black" stroke="black" points="732.77,-450.94 727.24,-441.9 725.93,-452.41 732.77,-450.94"/>
</g>
<!-- Validator/Certificate/SetExpr -->
<g id="node13" class="node">
<title>Validator/Certificate/SetExpr</title>
<g id="a_node13"><a xlink:href="https://github.com/AmosNico/Master-Thesis/tree/main/validator/Validator/Certificate/SetExpr.html" xlink:title="SetExpr✓">
<ellipse fill="none" stroke="green" cx="859" cy="-421.24" rx="50.03" ry="18.92"/>
<text xml:space="preserve" text-anchor="middle" x="859" y="-417.31" font-family="Times,serif" font-size="14.00">SetExpr✓</text>
</a>
</g>
</g>
<!-- Validator/Certificate/Certificate&#45;&gt;Validator/Certificate/SetExpr -->
<g id="edge13" class="edge">
<title>Validator/Certificate/Certificate&#45;&gt;Validator/Certificate/SetExpr</title>
<path fill="none" stroke="black" d="M764.95,-484.54C782.47,-472.93 806.12,-457.26 825.32,-444.55"/>
<polygon fill="black" stroke="black" points="827.23,-447.48 833.64,-439.04 823.37,-441.64 827.23,-447.48"/>
</g>
<!-- Validator/Certificate/SetExpr&#45;&gt;Validator/Certificate/Constraint -->
<g id="edge9" class="edge">
<title>Validator/Certificate/SetExpr&#45;&gt;Validator/Certificate/Constraint</title>
<path fill="none" stroke="black" d="M855.52,-401.95C853.76,-392.7 851.58,-381.24 849.59,-370.79"/>
<polygon fill="black" stroke="black" points="853.05,-370.25 847.74,-361.08 846.17,-371.55 853.05,-370.25"/>
</g>
<!-- Validator/PlanningTask/Parser -->
<g id="node14" class="node">
<title>Validator/PlanningTask/Parser</title>
<g id="a_node14"><a xlink:href="https://github.com/AmosNico/Master-Thesis/tree/main/validator/Validator/PlanningTask/Parser.html" xlink:title="Parser✓">
<ellipse fill="none" stroke="green" cx="404" cy="-835.47" rx="43.13" ry="18.92"/>
<text xml:space="preserve" text-anchor="middle" x="404" y="-831.55" font-family="Times,serif" font-size="14.00">Parser✓</text>
</a>
</g>
</g>
<!-- Validator/PlanningTask/Parser&#45;&gt;Validator/Certificate/Parser -->
<g id="edge10" class="edge">
<title>Validator/PlanningTask/Parser&#45;&gt;Validator/Certificate/Parser</title>
<path fill="none" stroke="black" d="M360.71,-833.26C269.95,-830.32 66.17,-821.45 43,-800.56 -0.87,-761 17,-729.29 17,-670.23 17,-670.23 17,-670.23 17,-587.4 17,-453.79 502.45,-428.2 668.26,-423.35"/>
<polygon fill="black" stroke="black" points="668.22,-426.85 678.12,-423.08 668.03,-419.86 668.22,-426.85"/>
</g>
<!-- Validator/Error -->
<g id="node15" class="node">
<title>Validator/Error</title>
<g id="a_node15"><a xlink:href="https://github.com/AmosNico/Master-Thesis/tree/main/validator/Validator/Error.html" xlink:title="Error✓">
<ellipse fill="none" stroke="green" cx="770" cy="-916.3" rx="39.42" ry="18.92"/>
<text xml:space="preserve" text-anchor="middle" x="770" y="-912.38" font-family="Times,serif" font-size="14.00">Error✓</text>
</a>
</g>
</g>
<!-- Validator/Error&#45;&gt;Validator/Certificate/SetExpr -->
<g id="edge12" class="edge">
<title>Validator/Error&#45;&gt;Validator/Certificate/SetExpr</title>
<path fill="none" stroke="black" d="M797.4,-902.41C830.64,-884.89 884.32,-849.97 901,-800.56 943.26,-675.33 893.86,-514.87 870.22,-450.66"/>
<polygon fill="black" stroke="black" points="873.6,-449.7 866.8,-441.57 867.05,-452.17 873.6,-449.7"/>
</g>
<!-- Validator/Error&#45;&gt;Validator/PlanningTask/Parser -->
<g id="edge18" class="edge">
<title>Validator/Error&#45;&gt;Validator/PlanningTask/Parser</title>
<path fill="none" stroke="black" d="M733.68,-908.79C676.94,-898.43 563.9,-877.04 469,-854.39 462.95,-852.94 456.61,-851.33 450.37,-849.67"/>
<polygon fill="black" stroke="black" points="451.33,-846.31 440.77,-847.08 449.51,-853.07 451.33,-846.31"/>
</g>
<!-- Validator/Certificate/ValidCertificate&#45;&gt;Validator/Certificate/ToDerivation -->
<g id="edge15" class="edge">
<title>Validator/Certificate/ValidCertificate&#45;&gt;Validator/Certificate/ToDerivation</title>
<path fill="none" stroke="black" d="M831.32,-161.29C832.49,-152.04 833.95,-140.58 835.27,-130.13"/>
<polygon fill="black" stroke="black" points="838.72,-130.79 836.5,-120.43 831.77,-129.91 838.72,-130.79"/>
</g>
<!-- Validator/PlanningTask/Core -->
<g id="node17" class="node">
<title>Validator/PlanningTask/Core</title>
<g id="a_node17"><a xlink:href="https://github.com/AmosNico/Master-Thesis/tree/main/validator/Validator/PlanningTask/Core.html" xlink:title="Core✓">
<ellipse fill="none" stroke="green" cx="467" cy="-916.3" rx="37.83" ry="18.92"/>
<text xml:space="preserve" text-anchor="middle" x="467" y="-912.38" font-family="Times,serif" font-size="14.00">Core✓</text>
</a>
</g>
</g>
<!-- Validator/PlanningTask/Core&#45;&gt;Validator/PlanningTask/Basic -->
<g id="edge17" class="edge">
<title>Validator/PlanningTask/Core&#45;&gt;Validator/PlanningTask/Basic</title>
<path fill="none" stroke="black" d="M480.57,-898.58C489.11,-888.07 500.3,-874.28 509.97,-862.37"/>
<polygon fill="black" stroke="black" points="512.46,-864.86 516.05,-854.89 507.03,-860.44 512.46,-864.86"/>
</g>
<!-- Validator/PlanningTask/Core&#45;&gt;Validator/PlanningTask/Parser -->
<g id="edge19" class="edge">
<title>Validator/PlanningTask/Core&#45;&gt;Validator/PlanningTask/Parser</title>
<path fill="none" stroke="black" d="M453.33,-898.2C445.05,-887.84 434.32,-874.41 424.98,-862.72"/>
<polygon fill="black" stroke="black" points="427.78,-860.62 418.81,-855 422.31,-864.99 427.78,-860.62"/>
</g>
<!-- Validator/StateSetFormalism/Formula&#45;&gt;Validator/StateSetFormalism/Formalism -->
<g id="edge21" class="edge">
<title>Validator/StateSetFormalism/Formula&#45;&gt;Validator/StateSetFormalism/Formalism</title>
<path fill="none" stroke="black" d="M484.08,-734.41C504.4,-722.55 533.36,-705.64 556.45,-692.15"/>
<polygon fill="black" stroke="black" points="558.09,-695.25 564.96,-687.18 554.56,-689.2 558.09,-695.25"/>
</g>
<!-- Validator/StateSetFormalism/Bdd -->
<g id="node19" class="node">
<title>Validator/StateSetFormalism/Bdd</title>
<g id="a_node19"><a xlink:href="https://github.com/AmosNico/Master-Thesis/tree/main/validator/Validator/StateSetFormalism/Bdd.html" xlink:title="Bdd?">
<ellipse fill="none" stroke="red" cx="459" cy="-669.23" rx="30.37" ry="18"/>
<text xml:space="preserve" text-anchor="middle" x="459" y="-664.18" font-family="Times,serif" font-size="14.00">Bdd?</text>
</a>
</g>
</g>
<!-- Validator/StateSetFormalism/Formula&#45;&gt;Validator/StateSetFormalism/Bdd -->
<g id="edge20" class="edge">
<title>Validator/StateSetFormalism/Formula&#45;&gt;Validator/StateSetFormalism/Bdd</title>
<path fill="none" stroke="black" d="M459,-731.56C459,-721.97 459,-709.83 459,-698.9"/>
<polygon fill="black" stroke="black" points="462.5,-699.19 459,-689.19 455.5,-699.19 462.5,-699.19"/>
</g>
<!-- Validator/StateSetFormalism/Horn -->
<g id="node20" class="node">
<title>Validator/StateSetFormalism/Horn</title>
<g id="a_node20"><a xlink:href="https://github.com/AmosNico/Master-Thesis/tree/main/validator/Validator/StateSetFormalism/Horn.html" xlink:title="Horn?">
<ellipse fill="none" stroke="red" cx="236" cy="-669.23" rx="33.95" ry="18"/>
<text xml:space="preserve" text-anchor="middle" x="236" y="-664.18" font-family="Times,serif" font-size="14.00">Horn?</text>
</a>
</g>
</g>
<!-- Validator/StateSetFormalism/Formula&#45;&gt;Validator/StateSetFormalism/Horn -->
<g id="edge24" class="edge">
<title>Validator/StateSetFormalism/Formula&#45;&gt;Validator/StateSetFormalism/Horn</title>
<path fill="none" stroke="black" d="M425.61,-737.26C385.13,-722.94 317.02,-698.87 274.4,-683.8"/>
<polygon fill="black" stroke="black" points="275.64,-680.53 265.05,-680.5 273.31,-687.13 275.64,-680.53"/>
</g>
<!-- Validator/StateSetFormalism/Mods -->
<g id="node21" class="node">
<title>Validator/StateSetFormalism/Mods</title>
<g id="a_node21"><a xlink:href="https://github.com/AmosNico/Master-Thesis/tree/main/validator/Validator/StateSetFormalism/Mods.html" xlink:title="Mods?">
<ellipse fill="none" stroke="red" cx="349" cy="-669.23" rx="36.51" ry="18"/>
<text xml:space="preserve" text-anchor="middle" x="349" y="-664.18" font-family="Times,serif" font-size="14.00">Mods?</text>
</a>
</g>
</g>
<!-- Validator/StateSetFormalism/Formula&#45;&gt;Validator/StateSetFormalism/Mods -->
<g id="edge25" class="edge">
<title>Validator/StateSetFormalism/Formula&#45;&gt;Validator/StateSetFormalism/Mods</title>
<path fill="none" stroke="black" d="M437.53,-733.67C420.6,-721.54 396.81,-704.49 378.16,-691.12"/>
<polygon fill="black" stroke="black" points="380.33,-688.37 370.17,-685.39 376.25,-694.06 380.33,-688.37"/>
</g>
<!-- Validator/StateSetFormalism/TwoCNF -->
<g id="node22" class="node">
<title>Validator/StateSetFormalism/TwoCNF</title>
<g id="a_node22"><a xlink:href="https://github.com/AmosNico/Master-Thesis/tree/main/validator/Validator/StateSetFormalism/TwoCNF.html" xlink:title="TwoCNF?">
<ellipse fill="none" stroke="red" cx="110" cy="-669.23" rx="49.3" ry="18"/>
<text xml:space="preserve" text-anchor="middle" x="110" y="-664.18" font-family="Times,serif" font-size="14.00">TwoCNF?</text>
</a>
</g>
</g>
<!-- Validator/StateSetFormalism/Formula&#45;&gt;Validator/StateSetFormalism/TwoCNF -->
<g id="edge30" class="edge">
<title>Validator/StateSetFormalism/Formula&#45;&gt;Validator/StateSetFormalism/TwoCNF</title>
<path fill="none" stroke="black" d="M418.86,-740.68C364.73,-729.28 265.4,-708.03 181,-688.14 174.26,-686.55 167.17,-684.83 160.19,-683.1"/>
<polygon fill="black" stroke="black" points="161.4,-679.79 150.85,-680.76 159.7,-686.58 161.4,-679.79"/>
</g>
<!-- Validator/StateSetFormalism/Bdd&#45;&gt;Validator/StateSetFormalism/StateSetFormalism -->
<g id="edge27" class="edge">
<title>Validator/StateSetFormalism/Bdd&#45;&gt;Validator/StateSetFormalism/StateSetFormalism</title>
<path fill="none" stroke="black" d="M459,-650.73C459,-641.44 459,-629.76 459,-619.09"/>
<polygon fill="black" stroke="black" points="462.5,-619.18 459,-609.18 455.5,-619.18 462.5,-619.18"/>
</g>
<!-- Validator/StateSetFormalism/Horn&#45;&gt;Validator/StateSetFormalism/StateSetFormalism -->
<g id="edge28" class="edge">
<title>Validator/StateSetFormalism/Horn&#45;&gt;Validator/StateSetFormalism/StateSetFormalism</title>
<path fill="none" stroke="black" d="M263.79,-658.4C298.52,-646.12 358.79,-624.82 403.2,-609.12"/>
<polygon fill="black" stroke="black" points="404.15,-612.5 412.41,-605.87 401.82,-605.9 404.15,-612.5"/>
</g>
<!-- Validator/StateSetFormalism/Mods&#45;&gt;Validator/StateSetFormalism/StateSetFormalism -->
<g id="edge29" class="edge">
<title>Validator/StateSetFormalism/Mods&#45;&gt;Validator/StateSetFormalism/StateSetFormalism</title>
<path fill="none" stroke="black" d="M369.18,-653.77C384.81,-642.56 406.82,-626.79 425.14,-613.66"/>
<polygon fill="black" stroke="black" points="427.01,-616.63 433.1,-607.96 422.93,-610.94 427.01,-616.63"/>
</g>
</g>
</svg>
